Coordinates
version=1
nRows=9
nColumns=63
inDegrees=yes

Units are S.I. units (second, meters, Newtons, ...)
If the header above contains a line with 'inDegrees', this indicates whether rotational values are in degrees (yes) or radians (no).

endheader
time	pelvis_tilt	pelvis_list	pelvis_rotation	pelvis_tx	pelvis_ty	pelvis_tz	hip_flexion_r	hip_adduction_r	hip_rotation_r	knee_angle_r	knee_angle_r_beta	ankle_angle_r	subtalar_angle_r	mtp_angle_r	hip_flexion_l	hip_adduction_l	hip_rotation_l	knee_angle_l	knee_angle_l_beta	ankle_angle_l	subtalar_angle_l	mtp_angle_l	L5_S1_Flex_Ext	L5_S1_Lat_Bending	L5_S1_axial_rotation	L4_L5_Flex_Ext	L4_L5_Lat_Bending	L4_L5_axial_rotation	L3_L4_Flex_Ext	L3_L4_Lat_Bending	L3_L4_axial_rotation	L2_L3_Flex_Ext	L2_L3_Lat_Bending	L2_L3_axial_rotation	L1_L2_Flex_Ext	L1_L2_Lat_Bending	L1_L2_axial_rotation	L1_T12_Flex_Ext	L1_T12_Lat_Bending	L1_T12_axial_rotation	Abs_r3	Abs_r2	Abs_r1	Abs_t1	Abs_t2	neck_flexion	neck_bending	neck_rotation	arm_flex_r	arm_add_r	arm_rot_r	elbow_flex_r	pro_sup_r	wrist_flex_r	wrist_dev_r	arm_flex_l	arm_add_l	arm_rot_l	elbow_flex_l	pro_sup_l	wrist_flex_l	wrist_dev_l
     15.66101695	     -1.88503163	      5.18821009	     88.49207639	      0.20852678	      0.74027393	      0.74874102	     -6.95721931	      3.03085881	     10.17058416	      0.47259771	      0.00824839	     19.03280581	    -12.24510778	      0.00000000	     -6.43682155	     -3.23787988	      0.99195134	      0.21200836	      0.00370024	     30.39780243	      1.94190932	      0.00000000	      0.11611162	      0.18802541	     -0.81990619	      0.21563090	      0.25007379	     -0.87115033	      0.19075979	      0.45716498	     -0.87115033	      0.13270398	      0.45716498	     -0.71741792	      0.10782125	      0.38342141	     -0.66617378	      0.06634618	      0.29125136	     -0.61492965	      0.82937372	      2.12698101	     -4.56007228	      0.00000000	      0.00000000	     22.23022171	      2.60030206	      7.30887660	      9.72157836	    -19.74689971	     61.35987112	     18.93567849	     35.73102474	      2.35186657	      1.39892225	      8.24989287	    -18.49485883	     89.54278778	     10.12562030	     27.89164463	     -8.05147915	    -12.79447451
     15.67796610	     -1.86128461	      5.34366229	     88.13373548	      0.20925607	      0.74020900	      0.74966344	     -7.06742452	      3.03524639	      9.94286448	      0.44804975	      0.00781994	     19.34366726	    -11.22536887	      0.00000000	     -6.62347301	     -3.23721358	      0.61253369	      0.21028662	      0.00367019	     30.44526535	      2.01855551	      0.00000000	      0.09027578	      0.19174390	     -0.79162947	      0.16765114	      0.25501939	     -0.84110632	      0.14831407	      0.46620612	     -0.84110632	      0.10317618	      0.46620612	     -0.69267579	      0.08383008	      0.39100416	     -0.64319895	      0.05158358	      0.29701130	     -0.59372211	      0.64483083	      2.16904533	     -4.40280565	      0.00000000	      0.00000000	     21.97557376	      2.50173697	      7.57716854	      9.87646117	    -19.63326363	     60.36471192	     19.13300086	     36.15003769	      2.04559152	      1.12793557	      8.21452998	    -18.51532343	     88.88685308	     10.32780871	     27.92882822	     -8.11114651	    -12.97686165
     15.69491525	     -1.87241609	      5.31745849	     87.63376550	      0.21017517	      0.73977756	      0.75014568	     -6.99282048	      2.98863486	     11.00334497	      0.42007004	      0.00733161	     19.29467252	    -11.85950315	      0.00000000	     -6.64620397	     -3.20510156	     -2.18306748	      0.21131314	      0.00368811	     31.03611522	      5.14351856	      0.00000000	      0.09734205	      0.19943975	     -0.73982589	      0.18077392	      0.26525486	     -0.78606501	      0.15992325	      0.48491780	     -0.78606501	      0.11125223	      0.48491780	     -0.64734765	      0.09039183	      0.40669753	     -0.60110853	      0.05562125	      0.30893217	     -0.55486942	      0.69530453	      2.25610230	     -4.11468965	      0.00000000	      0.00000000	     21.78896110	      2.42028432	      8.17901034	      7.97700752	    -19.11505942	     45.35772605	     20.98473277	     50.13689221	      1.75638759	      3.89825312	      8.36142649	    -18.52867380	     93.14560570	     10.45206381	     21.96437370	     -7.39294381	    -13.85889280
     15.71186441	     -1.93296108	      5.43047754	     87.35076497	      0.21092731	      0.73970106	      0.75082260	     -7.05832742	      2.90601029	     10.88092479	      0.40386099	      0.00704870	     19.60194444	    -11.00199796	      0.00000000	     -6.75809806	     -3.12883291	     -2.18850055	      0.20503083	      0.00357846	     30.99161198	      4.72125498	      0.00000000	      0.08793213	      0.19036878	     -0.76880853	      0.16329876	      0.25319048	     -0.81685906	      0.14446370	      0.46286265	     -0.81685906	      0.10049763	      0.46286265	     -0.67270746	      0.08165378	      0.38820001	     -0.62465693	      0.05024442	      0.29488124	     -0.57660640	      0.62809042	      2.15348970	     -4.27588239	      0.00000000	      0.00000000	     21.40010605	      2.55462220	      8.62660012	      8.34019173	    -18.85230443	     45.25775752	     20.97455167	     49.95990498	      2.20322872	      3.83050610	      8.05414974	    -18.68356521	     91.97454554	     10.71689563	     21.89888065	     -7.39437838	    -14.39563770
     15.72881356	     -2.01895243	      5.53958041	     87.16797421	      0.21154492	      0.73965824	      0.75150942	     -7.12059301	      2.81636670	     11.88919875	      0.39470830	      0.00688896	     19.37025549	    -12.04211132	      0.00000000	     -6.82586906	     -3.03969094	     -3.15011386	      0.19954901	      0.00348279	     31.15426537	      5.68154876	      0.00000000	      0.07665477	      0.17527117	     -0.80716314	      0.14235558	      0.23311066	     -0.85761083	      0.12593612	      0.42615433	     -0.85761083	      0.08760874	      0.42615433	     -0.70626775	      0.07118162	      0.35741297	     -0.65582005	      0.04380054	      0.27149504	     -0.60537235	      0.54753736	      1.98270254	     -4.48919922	      0.00000000	      0.00000000	     21.12310501	      2.71629521	      8.90131216	      8.81230302	    -18.62006395	     46.15389822	     20.87426907	     48.70722888	      2.71499065	      3.57319843	      7.76228940	    -18.86158457	     90.27150900	     10.94266089	     22.87402696	     -7.41039339	    -14.65278123
     15.74576271	     -2.11260202	      5.61399177	     87.12932724	      0.21197344	      0.73960263	      0.75203373	     -7.16584375	      2.72669118	     11.84868837	      0.39695274	      0.00692813	     19.41839213	    -11.75638133	      0.00000000	     -6.83093330	     -2.95741763	     -3.28258565	      0.19347225	      0.00337673	     31.17751683	      5.72348985	      0.00000000	      0.06779366	      0.15841797	     -0.84647270	      0.12589960	      0.21069590	     -0.89937724	      0.11137820	      0.38517744	     -0.89937724	      0.07748137	      0.38517744	     -0.74066361	      0.06295319	      0.32304592	     -0.68775907	      0.03873729	      0.24538943	     -0.63485453	      0.48424330	      1.79205572	     -4.70782722	      0.00000000	      0.00000000	     20.97488537	      2.89851366	      9.06804516	      9.12317729	    -18.38245096	     46.47474328	     20.79757755	     47.92685422	      3.47544892	      3.37055811	      7.63838824	    -19.01373357	     90.04689398	     11.06830578	     22.96200933	     -7.49653108	    -14.92366772
     15.76271186	     -2.22509012	      5.64074968	     87.15603732	      0.21224030	      0.73960422	      0.75221757	     -7.18863872	      2.61937964	     11.67759789	      0.40479423	      0.00706499	     19.42383877	    -11.44164964	      0.00000000	     -6.78365743	     -2.84631095	     -3.46252110	      0.18981546	      0.00331290	     31.14315070	      5.77207152	      0.00000000	      0.06522567	      0.13662656	     -0.85038028	      0.12113059	      0.18171333	     -0.90352904	      0.10715925	      0.33219382	     -0.90352904	      0.07454642	      0.33219382	     -0.74408274	      0.06056856	      0.27860888	     -0.69093397	      0.03726995	      0.21163454	     -0.63778521	      0.46590044	      1.54554699	     -4.72955998	      0.00000000	      0.00000000	     20.96393774	      3.02884401	      8.83950322	      9.11322959	    -18.24084773	     46.24257644	     21.05571054	     47.49405590	      3.56357653	      3.40634927	      7.65863643	    -19.08233573	     90.17482925	     11.02920035	     23.40625425	     -7.71383129	    -14.89878906
     15.77966102	     -2.36004182	      5.56831527	     87.14745404	      0.21265628	      0.73948853	      0.75216996	     -7.11965844	      2.50948323	     12.73142252	      0.41290331	      0.00720652	     18.97323515	    -12.97203481	      0.00000000	     -6.64618813	     -2.73652632	     -5.32122285	      0.19111017	      0.00333550	     31.39562842	      8.09915639	      0.00000000	      0.07680792	      0.11070828	     -0.80042136	      0.14264000	      0.14724201	     -0.85044769	      0.12618774	      0.26917610	     -0.85044769	      0.08778378	      0.26917610	     -0.70036869	      0.07132384	      0.22575631	     -0.65034235	      0.04388805	      0.17148712	     -0.60031602	      0.54863133	      1.25235415	     -4.45170348	      0.00000000	      0.00000000	     21.08593490	      3.12767631	      8.31892786	      8.91283077	    -18.20342965	     45.96904817	     21.40110566	     46.91490976	      3.74979372	      3.64447536	      7.85206571	    -19.21489768	     91.00912196	     11.04590551	     23.82326516	     -7.83882767	    -14.89494006
     15.79661017	     -2.45593915	      5.52169093	     87.32041207	      0.21274903	      0.73948294	      0.75196981	     -7.09674250	      2.44404463	     12.15740301	      0.42194409	      0.00736431	     19.10843253	    -12.28026233	      0.00000000	     -6.53218260	     -2.66824863	     -5.29886243	      0.19210247	      0.00335282	     31.38874307	      8.15778059	      0.00000000	      0.07909156	      0.09181263	     -0.76774075	      0.14688093	      0.12211080	     -0.81572455	      0.12993952	      0.22323324	     -0.81572455	      0.09039374	      0.22323324	     -0.67177316	      0.07344442	      0.18722433	     -0.62378936	      0.04519292	      0.14221777	     -0.57580556	      0.56494307	      1.03860289	     -4.26994373	      0.00000000	      0.00000000	     21.28359609	      3.18530580	      7.90761553	      8.66202551	    -18.25308650	     45.67551092	     21.79688705	     46.73836640	      3.65818510	      3.92504855	      8.04229681	    -19.28191638	     91.13452194	     11.09893440	     24.46501468	     -8.03974814	    -14.69860308
